<?xml version="1.0" encoding="UTF-8" standalone="no"?>
<svg viewBox="0 0 50 50"
 xmlns="http://www.w3.org/2000/svg" xmlns:xlink="http://www.w3.org/1999/xlink"  version="1.2" baseProfile="tiny">
<title>Qt SVG Document</title>
<desc>Generated with Qt</desc>
<defs>
</defs>
<g fill="none" stroke="black" stroke-width="1" fill-rule="evenodd" stroke-linecap="square" stroke-linejoin="bevel" >

<g fill="#be3841" fill-opacity="1" stroke="none" transform="matrix(3.125,0,0,3.125,-1268.75,-337.493)"
font-family="Noto Sans" font-size="10" font-weight="400" font-style="normal" 
>
<path vector-effect="none" fill-rule="nonzero" d="M414,109 C410.134,109 407,112.134 407,116 C407,119.866 410.134,123 414,123 C417.866,123 421,119.866 421,116 C421,112.134 417.866,109 414,109 M411,112.922 L411.75,112.922 C411.758,112.922 411.766,112.922 411.773,112.922 C411.965,112.93 412.156,113.018 412.289,113.156 L414,114.867 L415.734,113.156 C415.934,112.983 416.069,112.927 416.25,112.922 L417,112.922 L417,113.672 C417,113.887 416.974,114.085 416.812,114.234 L415.102,115.945 L416.789,117.633 C416.93,117.774 417,117.973 417,118.172 L417,118.922 L416.25,118.922 C416.051,118.922 415.852,118.852 415.711,118.711 L414,117 L412.289,118.711 C412.148,118.852 411.949,118.922 411.75,118.922 L411,118.922 L411,118.172 C411,117.973 411.07,117.774 411.211,117.633 L412.922,115.945 L411.211,114.234 C411.053,114.088 410.984,113.882 411,113.672 L411,112.922"/>
</g>

<g fill="none" stroke="none" transform="matrix(3.125,0,0,3.125,-1378.13,580.125)"
font-family="Noto Sans" font-size="10" font-weight="400" font-style="normal" 
>
<rect x="441" y="-185.64" width="16" height="16"/>
</g>

<g fill="none" stroke="#000000" stroke-opacity="1" stroke-width="1" stroke-linecap="square" stroke-linejoin="bevel" transform="matrix(1,0,0,1,0,0)"
font-family="Noto Sans" font-size="10" font-weight="400" font-style="normal" 
>
</g>
</g>
</svg>
