<?xml version="1.0" encoding="UTF-8" standalone="no"?>
<svg viewBox="0 0 50 50"
 xmlns="http://www.w3.org/2000/svg" xmlns:xlink="http://www.w3.org/1999/xlink"  version="1.2" baseProfile="tiny">
<title>Qt SVG Document</title>
<desc>Generated with Qt</desc>
<defs>
</defs>
<g fill="none" stroke="black" stroke-width="1" fill-rule="evenodd" stroke-linecap="square" stroke-linejoin="bevel" >

<g fill="#cc575d" fill-opacity="1" stroke="none" transform="matrix(3.125,0,0,3.125,-1268.75,-178.118)"
font-family="Noto Sans" font-size="10" font-weight="400" font-style="normal" 
>
<path vector-effect="none" fill-rule="nonzero" d="M414,58 C410.134,58 407,61.134 407,65 C407,68.866 410.134,72 414,72 C417.866,72 421,68.866 421,65 C421,61.134 417.866,58 414,58 M411,61.9219 L411.75,61.9219 C411.758,61.9218 411.766,61.9215 411.773,61.9219 C411.965,61.9303 412.156,62.0183 412.289,62.1563 L414,63.8672 L415.734,62.1563 C415.934,61.9834 416.069,61.9271 416.25,61.9219 L417,61.9219 L417,62.6719 C417,62.8867 416.974,63.0849 416.813,63.2344 L415.102,64.9453 L416.789,66.6328 C416.93,66.7739 417,66.9729 417,67.1719 L417,67.9219 L416.25,67.9219 C416.051,67.9219 415.852,67.8521 415.711,67.7109 L414,66 L412.289,67.7109 C412.148,67.8521 411.949,67.9219 411.75,67.9219 L411,67.9219 L411,67.1719 C411,66.9729 411.07,66.7739 411.211,66.6328 L412.922,64.9453 L411.211,63.2344 C411.053,63.0884 410.984,62.8824 411,62.6719 L411,61.9219"/>
</g>

<g fill="none" stroke="none" transform="matrix(3.125,0,0,3.125,-2015.63,580.125)"
font-family="Noto Sans" font-size="10" font-weight="400" font-style="normal" 
>
<rect x="645" y="-185.64" width="16" height="16"/>
</g>

<g fill="none" stroke="#000000" stroke-opacity="1" stroke-width="1" stroke-linecap="square" stroke-linejoin="bevel" transform="matrix(1,0,0,1,0,0)"
font-family="Noto Sans" font-size="10" font-weight="400" font-style="normal" 
>
</g>
</g>
</svg>
