<?xml version="1.0" encoding="UTF-8" standalone="no"?>
<svg viewBox="0 0 50 50"
 xmlns="http://www.w3.org/2000/svg" xmlns:xlink="http://www.w3.org/1999/xlink"  version="1.2" baseProfile="tiny">
<title>Qt SVG Document</title>
<desc>Generated with Qt</desc>
<defs>
</defs>
<g fill="none" stroke="black" stroke-width="1" fill-rule="evenodd" stroke-linecap="square" stroke-linejoin="bevel" >

<g fill="#d7787d" fill-opacity="1" stroke="none" transform="matrix(3.125,0,0,3.125,-1268.75,-284.368)"
font-family="Noto Sans" font-size="10" font-weight="400" font-style="normal" 
>
<path vector-effect="none" fill-rule="nonzero" d="M414,92 C410.134,92 407,95.134 407,99 C407,102.866 410.134,106 414,106 C417.866,106 421,102.866 421,99 C421,95.134 417.866,92 414,92 M411,95.9219 L411.75,95.9219 C411.758,95.9218 411.766,95.9215 411.773,95.9219 C411.965,95.9303 412.156,96.0183 412.289,96.1563 L414,97.8672 L415.734,96.1563 C415.934,95.9834 416.069,95.9271 416.25,95.9219 L417,95.9219 L417,96.6719 C417,96.8867 416.974,97.0849 416.813,97.2344 L415.102,98.9453 L416.789,100.633 C416.93,100.774 417,100.973 417,101.172 L417,101.922 L416.25,101.922 C416.051,101.922 415.852,101.852 415.711,101.711 L414,100 L412.289,101.711 C412.148,101.852 411.949,101.922 411.75,101.922 L411,101.922 L411,101.172 C411,100.973 411.07,100.774 411.211,100.633 L412.922,98.9453 L411.211,97.2344 C411.053,97.0884 410.984,96.8824 411,96.6719 L411,95.9219"/>
</g>

<g fill="none" stroke="none" transform="matrix(3.125,0,0,3.125,-1693.75,580.125)"
font-family="Noto Sans" font-size="10" font-weight="400" font-style="normal" 
>
<rect x="542" y="-185.64" width="16" height="16"/>
</g>

<g fill="none" stroke="#000000" stroke-opacity="1" stroke-width="1" stroke-linecap="square" stroke-linejoin="bevel" transform="matrix(1,0,0,1,0,0)"
font-family="Noto Sans" font-size="10" font-weight="400" font-style="normal" 
>
</g>
</g>
</svg>
