<?xml version="1.0" encoding="UTF-8" standalone="no"?>
<svg viewBox="0 0 50 50"
 xmlns="http://www.w3.org/2000/svg" xmlns:xlink="http://www.w3.org/1999/xlink"  version="1.2" baseProfile="tiny">
<title>Qt SVG Document</title>
<desc>Generated with Qt</desc>
<defs>
</defs>
<g fill="none" stroke="black" stroke-width="1" fill-rule="evenodd" stroke-linecap="square" stroke-linejoin="bevel" >

<g fill="#5f697f" fill-opacity="1" stroke="none" transform="matrix(3.125,0,0,3.125,-178.125,0)"
font-family="Noto Sans" font-size="10" font-weight="400" font-style="normal" 
opacity="0.45" >
<circle cx="65" cy="8" r="6"/>
</g>

<g fill="#15171c" fill-opacity="1" stroke="none" transform="matrix(3.125,0,0,3.125,-178.125,0)"
font-family="Noto Sans" font-size="10" font-weight="400" font-style="normal" 
opacity="0.37" >
<path vector-effect="none" fill-rule="nonzero" d="M65,1 C61.134,1 58,4.13401 58,8 C58,11.866 61.134,15 65,15 C68.866,15 72,11.866 72,8 C72,4.13401 68.866,1 65,1 M65,2 C68.3137,2 71,4.68629 71,8 C71,11.3137 68.3137,14 65,14 C61.6863,14 59,11.3137 59,8 C59,4.68629 61.6863,2 65,2 "/>
</g>

<g fill="#c4c7cc" fill-opacity="1" stroke="none" transform="matrix(3.125,0,0,3.125,-178.125,0)"
font-family="Noto Sans" font-size="10" font-weight="400" font-style="normal" 
>
<path vector-effect="none" fill-rule="evenodd" d="M63.7995,5 L67.1812,5 C67.6315,5 67.9975,5.36847 68,5.8188 L68,9.2005 L63.7995,5 M66.2069,11.0069 L62.8118,11.0069 C62.3615,11.0069 61.9931,10.6385 61.9931,10.1882 L61.9931,6.79308 L66.2069,11.0069"/>
</g>

<g fill="none" stroke="none" transform="matrix(3.125,0,0,3.125,-178.125,0)"
font-family="Noto Sans" font-size="10" font-weight="400" font-style="normal" 
>
<rect x="57" y="0" width="16" height="16"/>
</g>

<g fill="none" stroke="#000000" stroke-opacity="1" stroke-width="1" stroke-linecap="square" stroke-linejoin="bevel" transform="matrix(1,0,0,1,0,0)"
font-family="Noto Sans" font-size="10" font-weight="400" font-style="normal" 
>
</g>
</g>
</svg>
